<mxfile host="app.diagrams.net" modified="2023-11-20T15:03:16.211Z" agent="Mozilla/5.0 (Windows NT 10.0; Win64; x64) AppleWebKit/537.36 (KHTML, like Gecko) Chrome/119.0.0.0 Safari/537.36" etag="0D0nEHQqxUm4I3oxlr9c" version="22.1.3" type="device">
  <diagram id="C5RBs43oDa-KdzZeNtuy" name="Page-1">
    <mxGraphModel dx="2647" dy="2689" grid="1" gridSize="10" guides="1" tooltips="1" connect="1" arrows="1" fold="1" page="1" pageScale="1" pageWidth="827" pageHeight="1169" math="0" shadow="0">
      <root>
        <mxCell id="WIyWlLk6GJQsqaUBKTNV-0" />
        <mxCell id="WIyWlLk6GJQsqaUBKTNV-1" parent="WIyWlLk6GJQsqaUBKTNV-0" />
        <mxCell id="WIyWlLk6GJQsqaUBKTNV-2" value="" style="rounded=0;html=1;jettySize=auto;orthogonalLoop=1;fontSize=11;endArrow=block;endFill=0;endSize=8;strokeWidth=1;shadow=0;labelBackgroundColor=none;edgeStyle=orthogonalEdgeStyle;" parent="WIyWlLk6GJQsqaUBKTNV-1" source="WIyWlLk6GJQsqaUBKTNV-3" target="WIyWlLk6GJQsqaUBKTNV-6" edge="1">
          <mxGeometry relative="1" as="geometry" />
        </mxCell>
        <mxCell id="WIyWlLk6GJQsqaUBKTNV-3" value="Verify Receipt from Apple" style="rounded=1;whiteSpace=wrap;html=1;fontSize=12;glass=0;strokeWidth=1;shadow=0;" parent="WIyWlLk6GJQsqaUBKTNV-1" vertex="1">
          <mxGeometry x="160" y="80" width="120" height="40" as="geometry" />
        </mxCell>
        <mxCell id="WIyWlLk6GJQsqaUBKTNV-5" value="No" style="edgeStyle=orthogonalEdgeStyle;rounded=0;html=1;jettySize=auto;orthogonalLoop=1;fontSize=11;endArrow=block;endFill=0;endSize=8;strokeWidth=1;shadow=0;labelBackgroundColor=none;" parent="WIyWlLk6GJQsqaUBKTNV-1" source="WIyWlLk6GJQsqaUBKTNV-6" target="WIyWlLk6GJQsqaUBKTNV-7" edge="1">
          <mxGeometry y="10" relative="1" as="geometry">
            <mxPoint as="offset" />
          </mxGeometry>
        </mxCell>
        <mxCell id="qtqXAIusuXeXWLF8Rw80-3" value="" style="edgeStyle=orthogonalEdgeStyle;rounded=0;orthogonalLoop=1;jettySize=auto;html=1;" edge="1" parent="WIyWlLk6GJQsqaUBKTNV-1" source="WIyWlLk6GJQsqaUBKTNV-6" target="qtqXAIusuXeXWLF8Rw80-2">
          <mxGeometry relative="1" as="geometry" />
        </mxCell>
        <mxCell id="qtqXAIusuXeXWLF8Rw80-4" value="Yes" style="edgeLabel;html=1;align=center;verticalAlign=middle;resizable=0;points=[];" vertex="1" connectable="0" parent="qtqXAIusuXeXWLF8Rw80-3">
          <mxGeometry x="-0.2963" y="-1" relative="1" as="geometry">
            <mxPoint as="offset" />
          </mxGeometry>
        </mxCell>
        <mxCell id="WIyWlLk6GJQsqaUBKTNV-6" value="is receipt verified" style="rhombus;whiteSpace=wrap;html=1;shadow=0;fontFamily=Helvetica;fontSize=12;align=center;strokeWidth=1;spacing=6;spacingTop=-4;" parent="WIyWlLk6GJQsqaUBKTNV-1" vertex="1">
          <mxGeometry x="170" y="170" width="100" height="80" as="geometry" />
        </mxCell>
        <mxCell id="WIyWlLk6GJQsqaUBKTNV-7" value="Return Error" style="rounded=1;whiteSpace=wrap;html=1;fontSize=12;glass=0;strokeWidth=1;shadow=0;" parent="WIyWlLk6GJQsqaUBKTNV-1" vertex="1">
          <mxGeometry x="320" y="190" width="120" height="40" as="geometry" />
        </mxCell>
        <mxCell id="qtqXAIusuXeXWLF8Rw80-1" style="edgeStyle=orthogonalEdgeStyle;rounded=0;orthogonalLoop=1;jettySize=auto;html=1;entryX=0.5;entryY=0;entryDx=0;entryDy=0;" edge="1" parent="WIyWlLk6GJQsqaUBKTNV-1" source="qtqXAIusuXeXWLF8Rw80-0" target="WIyWlLk6GJQsqaUBKTNV-3">
          <mxGeometry relative="1" as="geometry" />
        </mxCell>
        <mxCell id="qtqXAIusuXeXWLF8Rw80-0" value="Client Sends Receipt" style="rounded=1;whiteSpace=wrap;html=1;fontSize=12;glass=0;strokeWidth=1;shadow=0;" vertex="1" parent="WIyWlLk6GJQsqaUBKTNV-1">
          <mxGeometry x="160" y="-10" width="120" height="40" as="geometry" />
        </mxCell>
        <mxCell id="qtqXAIusuXeXWLF8Rw80-6" value="" style="edgeStyle=orthogonalEdgeStyle;rounded=0;orthogonalLoop=1;jettySize=auto;html=1;" edge="1" parent="WIyWlLk6GJQsqaUBKTNV-1" source="qtqXAIusuXeXWLF8Rw80-2" target="qtqXAIusuXeXWLF8Rw80-5">
          <mxGeometry relative="1" as="geometry" />
        </mxCell>
        <mxCell id="qtqXAIusuXeXWLF8Rw80-2" value="Create New User&lt;br&gt;in Database" style="rounded=1;whiteSpace=wrap;html=1;shadow=0;strokeWidth=1;spacing=6;spacingTop=-4;" vertex="1" parent="WIyWlLk6GJQsqaUBKTNV-1">
          <mxGeometry x="160" y="340" width="120" height="60" as="geometry" />
        </mxCell>
        <mxCell id="qtqXAIusuXeXWLF8Rw80-8" value="" style="edgeStyle=orthogonalEdgeStyle;rounded=0;orthogonalLoop=1;jettySize=auto;html=1;" edge="1" parent="WIyWlLk6GJQsqaUBKTNV-1" source="qtqXAIusuXeXWLF8Rw80-5" target="qtqXAIusuXeXWLF8Rw80-7">
          <mxGeometry relative="1" as="geometry" />
        </mxCell>
        <mxCell id="qtqXAIusuXeXWLF8Rw80-5" value="Create access and refresh JWT tokens with expiry for user" style="whiteSpace=wrap;html=1;rounded=1;shadow=0;strokeWidth=1;spacing=6;spacingTop=-4;" vertex="1" parent="WIyWlLk6GJQsqaUBKTNV-1">
          <mxGeometry x="160" y="440" width="120" height="60" as="geometry" />
        </mxCell>
        <mxCell id="qtqXAIusuXeXWLF8Rw80-7" value="Return JWT Tokens To app" style="whiteSpace=wrap;html=1;rounded=1;shadow=0;strokeWidth=1;spacing=6;spacingTop=-4;" vertex="1" parent="WIyWlLk6GJQsqaUBKTNV-1">
          <mxGeometry x="160" y="540" width="120" height="60" as="geometry" />
        </mxCell>
        <mxCell id="qtqXAIusuXeXWLF8Rw80-9" value="&lt;h1&gt;Receipt Verification Flow for new User&lt;/h1&gt;" style="text;html=1;strokeColor=none;fillColor=none;spacing=5;spacingTop=-20;whiteSpace=wrap;overflow=hidden;rounded=0;" vertex="1" parent="WIyWlLk6GJQsqaUBKTNV-1">
          <mxGeometry x="100" y="-100" width="380" height="70" as="geometry" />
        </mxCell>
        <mxCell id="qtqXAIusuXeXWLF8Rw80-10" value="" style="rounded=0;html=1;jettySize=auto;orthogonalLoop=1;fontSize=11;endArrow=block;endFill=0;endSize=8;strokeWidth=1;shadow=0;labelBackgroundColor=none;edgeStyle=orthogonalEdgeStyle;" edge="1" parent="WIyWlLk6GJQsqaUBKTNV-1" source="qtqXAIusuXeXWLF8Rw80-11" target="qtqXAIusuXeXWLF8Rw80-15">
          <mxGeometry relative="1" as="geometry" />
        </mxCell>
        <mxCell id="qtqXAIusuXeXWLF8Rw80-11" value="Verify User from database&amp;nbsp;" style="rounded=1;whiteSpace=wrap;html=1;fontSize=12;glass=0;strokeWidth=1;shadow=0;" vertex="1" parent="WIyWlLk6GJQsqaUBKTNV-1">
          <mxGeometry x="690" y="80" width="120" height="40" as="geometry" />
        </mxCell>
        <mxCell id="qtqXAIusuXeXWLF8Rw80-12" value="No" style="edgeStyle=orthogonalEdgeStyle;rounded=0;html=1;jettySize=auto;orthogonalLoop=1;fontSize=11;endArrow=block;endFill=0;endSize=8;strokeWidth=1;shadow=0;labelBackgroundColor=none;" edge="1" parent="WIyWlLk6GJQsqaUBKTNV-1" source="qtqXAIusuXeXWLF8Rw80-15" target="qtqXAIusuXeXWLF8Rw80-16">
          <mxGeometry y="10" relative="1" as="geometry">
            <mxPoint as="offset" />
          </mxGeometry>
        </mxCell>
        <mxCell id="qtqXAIusuXeXWLF8Rw80-13" value="" style="edgeStyle=orthogonalEdgeStyle;rounded=0;orthogonalLoop=1;jettySize=auto;html=1;" edge="1" parent="WIyWlLk6GJQsqaUBKTNV-1" source="qtqXAIusuXeXWLF8Rw80-15" target="qtqXAIusuXeXWLF8Rw80-20">
          <mxGeometry relative="1" as="geometry" />
        </mxCell>
        <mxCell id="qtqXAIusuXeXWLF8Rw80-14" value="Yes" style="edgeLabel;html=1;align=center;verticalAlign=middle;resizable=0;points=[];" vertex="1" connectable="0" parent="qtqXAIusuXeXWLF8Rw80-13">
          <mxGeometry x="-0.2963" y="-1" relative="1" as="geometry">
            <mxPoint as="offset" />
          </mxGeometry>
        </mxCell>
        <mxCell id="qtqXAIusuXeXWLF8Rw80-15" value="Does User&lt;br&gt;Exist in Database" style="rhombus;whiteSpace=wrap;html=1;shadow=0;fontFamily=Helvetica;fontSize=12;align=center;strokeWidth=1;spacing=6;spacingTop=-4;" vertex="1" parent="WIyWlLk6GJQsqaUBKTNV-1">
          <mxGeometry x="700" y="170" width="100" height="80" as="geometry" />
        </mxCell>
        <mxCell id="qtqXAIusuXeXWLF8Rw80-16" value="Return Error" style="rounded=1;whiteSpace=wrap;html=1;fontSize=12;glass=0;strokeWidth=1;shadow=0;" vertex="1" parent="WIyWlLk6GJQsqaUBKTNV-1">
          <mxGeometry x="850" y="190" width="120" height="40" as="geometry" />
        </mxCell>
        <mxCell id="qtqXAIusuXeXWLF8Rw80-17" style="edgeStyle=orthogonalEdgeStyle;rounded=0;orthogonalLoop=1;jettySize=auto;html=1;entryX=0.5;entryY=0;entryDx=0;entryDy=0;" edge="1" parent="WIyWlLk6GJQsqaUBKTNV-1" source="qtqXAIusuXeXWLF8Rw80-18" target="qtqXAIusuXeXWLF8Rw80-11">
          <mxGeometry relative="1" as="geometry" />
        </mxCell>
        <mxCell id="qtqXAIusuXeXWLF8Rw80-18" value="Client Sends Receipt + exusting user_Id" style="rounded=1;whiteSpace=wrap;html=1;fontSize=12;glass=0;strokeWidth=1;shadow=0;" vertex="1" parent="WIyWlLk6GJQsqaUBKTNV-1">
          <mxGeometry x="690" y="-10" width="120" height="40" as="geometry" />
        </mxCell>
        <mxCell id="qtqXAIusuXeXWLF8Rw80-26" value="" style="edgeStyle=orthogonalEdgeStyle;rounded=0;orthogonalLoop=1;jettySize=auto;html=1;" edge="1" parent="WIyWlLk6GJQsqaUBKTNV-1" source="qtqXAIusuXeXWLF8Rw80-20" target="qtqXAIusuXeXWLF8Rw80-25">
          <mxGeometry relative="1" as="geometry" />
        </mxCell>
        <mxCell id="qtqXAIusuXeXWLF8Rw80-20" value="Verify User Receipt&lt;br&gt;from Apple" style="rounded=1;whiteSpace=wrap;html=1;shadow=0;strokeWidth=1;spacing=6;spacingTop=-4;" vertex="1" parent="WIyWlLk6GJQsqaUBKTNV-1">
          <mxGeometry x="690" y="340" width="120" height="60" as="geometry" />
        </mxCell>
        <mxCell id="qtqXAIusuXeXWLF8Rw80-24" value="&lt;h1&gt;Receipt Verification Flow for existing User&lt;/h1&gt;" style="text;html=1;strokeColor=none;fillColor=none;spacing=5;spacingTop=-20;whiteSpace=wrap;overflow=hidden;rounded=0;" vertex="1" parent="WIyWlLk6GJQsqaUBKTNV-1">
          <mxGeometry x="630" y="-100" width="380" height="70" as="geometry" />
        </mxCell>
        <mxCell id="qtqXAIusuXeXWLF8Rw80-28" value="" style="edgeStyle=orthogonalEdgeStyle;rounded=0;orthogonalLoop=1;jettySize=auto;html=1;entryX=0;entryY=0.5;entryDx=0;entryDy=0;" edge="1" parent="WIyWlLk6GJQsqaUBKTNV-1" source="qtqXAIusuXeXWLF8Rw80-25" target="qtqXAIusuXeXWLF8Rw80-32">
          <mxGeometry relative="1" as="geometry">
            <mxPoint x="850" y="490" as="targetPoint" />
          </mxGeometry>
        </mxCell>
        <mxCell id="qtqXAIusuXeXWLF8Rw80-29" value="No" style="edgeLabel;html=1;align=center;verticalAlign=middle;resizable=0;points=[];" vertex="1" connectable="0" parent="qtqXAIusuXeXWLF8Rw80-28">
          <mxGeometry x="-0.3402" relative="1" as="geometry">
            <mxPoint as="offset" />
          </mxGeometry>
        </mxCell>
        <mxCell id="qtqXAIusuXeXWLF8Rw80-35" value="" style="edgeStyle=orthogonalEdgeStyle;rounded=0;orthogonalLoop=1;jettySize=auto;html=1;" edge="1" parent="WIyWlLk6GJQsqaUBKTNV-1" source="qtqXAIusuXeXWLF8Rw80-25" target="qtqXAIusuXeXWLF8Rw80-34">
          <mxGeometry relative="1" as="geometry" />
        </mxCell>
        <mxCell id="qtqXAIusuXeXWLF8Rw80-36" value="Yes" style="edgeLabel;html=1;align=center;verticalAlign=middle;resizable=0;points=[];" vertex="1" connectable="0" parent="qtqXAIusuXeXWLF8Rw80-35">
          <mxGeometry x="-0.4524" y="-3" relative="1" as="geometry">
            <mxPoint as="offset" />
          </mxGeometry>
        </mxCell>
        <mxCell id="qtqXAIusuXeXWLF8Rw80-25" value="is receipt verified" style="rhombus;whiteSpace=wrap;html=1;" vertex="1" parent="WIyWlLk6GJQsqaUBKTNV-1">
          <mxGeometry x="710" y="450" width="80" height="80" as="geometry" />
        </mxCell>
        <mxCell id="qtqXAIusuXeXWLF8Rw80-32" value="Update user in Database.&lt;br&gt;Return error&lt;br style=&quot;border-color: var(--border-color);&quot;&gt;and ask user to renew&amp;nbsp; Subscription" style="rounded=1;whiteSpace=wrap;html=1;" vertex="1" parent="WIyWlLk6GJQsqaUBKTNV-1">
          <mxGeometry x="850" y="450" width="140" height="80" as="geometry" />
        </mxCell>
        <mxCell id="qtqXAIusuXeXWLF8Rw80-34" value="update User in database,&lt;br&gt;Return New Token" style="rounded=1;whiteSpace=wrap;html=1;" vertex="1" parent="WIyWlLk6GJQsqaUBKTNV-1">
          <mxGeometry x="690" y="620" width="120" height="60" as="geometry" />
        </mxCell>
        <mxCell id="qtqXAIusuXeXWLF8Rw80-38" value="&lt;h1&gt;Middleware for Token Verification&lt;/h1&gt;" style="text;html=1;strokeColor=none;fillColor=none;spacing=5;spacingTop=-20;whiteSpace=wrap;overflow=hidden;rounded=0;" vertex="1" parent="WIyWlLk6GJQsqaUBKTNV-1">
          <mxGeometry x="1190" y="-90" width="380" height="70" as="geometry" />
        </mxCell>
        <mxCell id="qtqXAIusuXeXWLF8Rw80-41" value="" style="edgeStyle=orthogonalEdgeStyle;rounded=0;orthogonalLoop=1;jettySize=auto;html=1;" edge="1" parent="WIyWlLk6GJQsqaUBKTNV-1" source="qtqXAIusuXeXWLF8Rw80-39" target="qtqXAIusuXeXWLF8Rw80-40">
          <mxGeometry relative="1" as="geometry" />
        </mxCell>
        <mxCell id="qtqXAIusuXeXWLF8Rw80-39" value="Decode and Parse JWT token" style="rounded=1;whiteSpace=wrap;html=1;" vertex="1" parent="WIyWlLk6GJQsqaUBKTNV-1">
          <mxGeometry x="1230" y="200" width="120" height="60" as="geometry" />
        </mxCell>
        <mxCell id="qtqXAIusuXeXWLF8Rw80-45" value="" style="edgeStyle=orthogonalEdgeStyle;rounded=0;orthogonalLoop=1;jettySize=auto;html=1;" edge="1" parent="WIyWlLk6GJQsqaUBKTNV-1" source="qtqXAIusuXeXWLF8Rw80-40" target="qtqXAIusuXeXWLF8Rw80-44">
          <mxGeometry relative="1" as="geometry" />
        </mxCell>
        <mxCell id="qtqXAIusuXeXWLF8Rw80-40" value="Get user_id and token expiry from decoded token" style="whiteSpace=wrap;html=1;rounded=1;" vertex="1" parent="WIyWlLk6GJQsqaUBKTNV-1">
          <mxGeometry x="1230" y="300" width="120" height="60" as="geometry" />
        </mxCell>
        <mxCell id="qtqXAIusuXeXWLF8Rw80-47" value="" style="edgeStyle=orthogonalEdgeStyle;rounded=0;orthogonalLoop=1;jettySize=auto;html=1;" edge="1" parent="WIyWlLk6GJQsqaUBKTNV-1" source="qtqXAIusuXeXWLF8Rw80-44" target="qtqXAIusuXeXWLF8Rw80-46">
          <mxGeometry relative="1" as="geometry" />
        </mxCell>
        <mxCell id="qtqXAIusuXeXWLF8Rw80-57" value="Yes" style="edgeLabel;html=1;align=center;verticalAlign=middle;resizable=0;points=[];" vertex="1" connectable="0" parent="qtqXAIusuXeXWLF8Rw80-47">
          <mxGeometry x="-0.2067" y="-3" relative="1" as="geometry">
            <mxPoint as="offset" />
          </mxGeometry>
        </mxCell>
        <mxCell id="qtqXAIusuXeXWLF8Rw80-56" value="" style="edgeStyle=orthogonalEdgeStyle;rounded=0;orthogonalLoop=1;jettySize=auto;html=1;" edge="1" parent="WIyWlLk6GJQsqaUBKTNV-1" source="qtqXAIusuXeXWLF8Rw80-44" target="qtqXAIusuXeXWLF8Rw80-55">
          <mxGeometry relative="1" as="geometry" />
        </mxCell>
        <mxCell id="qtqXAIusuXeXWLF8Rw80-58" value="No" style="edgeLabel;html=1;align=center;verticalAlign=middle;resizable=0;points=[];" vertex="1" connectable="0" parent="qtqXAIusuXeXWLF8Rw80-56">
          <mxGeometry x="-0.117" y="-1" relative="1" as="geometry">
            <mxPoint as="offset" />
          </mxGeometry>
        </mxCell>
        <mxCell id="qtqXAIusuXeXWLF8Rw80-44" value="is Expired" style="rhombus;whiteSpace=wrap;html=1;rounded=1;" vertex="1" parent="WIyWlLk6GJQsqaUBKTNV-1">
          <mxGeometry x="1250" y="430" width="80" height="80" as="geometry" />
        </mxCell>
        <mxCell id="qtqXAIusuXeXWLF8Rw80-46" value="Return error and ask client to generate a new token with existing user" style="whiteSpace=wrap;html=1;rounded=1;" vertex="1" parent="WIyWlLk6GJQsqaUBKTNV-1">
          <mxGeometry x="1390" y="440" width="120" height="60" as="geometry" />
        </mxCell>
        <mxCell id="qtqXAIusuXeXWLF8Rw80-49" value="" style="edgeStyle=orthogonalEdgeStyle;rounded=0;orthogonalLoop=1;jettySize=auto;html=1;" edge="1" parent="WIyWlLk6GJQsqaUBKTNV-1" source="qtqXAIusuXeXWLF8Rw80-48" target="qtqXAIusuXeXWLF8Rw80-39">
          <mxGeometry relative="1" as="geometry" />
        </mxCell>
        <mxCell id="qtqXAIusuXeXWLF8Rw80-54" value="Yes" style="edgeLabel;html=1;align=center;verticalAlign=middle;resizable=0;points=[];" vertex="1" connectable="0" parent="qtqXAIusuXeXWLF8Rw80-49">
          <mxGeometry x="0.3978" y="1" relative="1" as="geometry">
            <mxPoint as="offset" />
          </mxGeometry>
        </mxCell>
        <mxCell id="qtqXAIusuXeXWLF8Rw80-52" value="" style="edgeStyle=orthogonalEdgeStyle;rounded=0;orthogonalLoop=1;jettySize=auto;html=1;" edge="1" parent="WIyWlLk6GJQsqaUBKTNV-1" source="qtqXAIusuXeXWLF8Rw80-48" target="qtqXAIusuXeXWLF8Rw80-51">
          <mxGeometry relative="1" as="geometry" />
        </mxCell>
        <mxCell id="qtqXAIusuXeXWLF8Rw80-53" value="No" style="edgeLabel;html=1;align=center;verticalAlign=middle;resizable=0;points=[];" vertex="1" connectable="0" parent="qtqXAIusuXeXWLF8Rw80-52">
          <mxGeometry x="-0.0467" y="-1" relative="1" as="geometry">
            <mxPoint as="offset" />
          </mxGeometry>
        </mxCell>
        <mxCell id="qtqXAIusuXeXWLF8Rw80-48" value="is a token attached to request" style="rhombus;whiteSpace=wrap;html=1;" vertex="1" parent="WIyWlLk6GJQsqaUBKTNV-1">
          <mxGeometry x="1250" y="90" width="80" height="80" as="geometry" />
        </mxCell>
        <mxCell id="qtqXAIusuXeXWLF8Rw80-51" value="Return Error&lt;br&gt;Unauthorized" style="whiteSpace=wrap;html=1;" vertex="1" parent="WIyWlLk6GJQsqaUBKTNV-1">
          <mxGeometry x="1390" y="100" width="120" height="60" as="geometry" />
        </mxCell>
        <mxCell id="qtqXAIusuXeXWLF8Rw80-62" value="" style="edgeStyle=orthogonalEdgeStyle;rounded=0;orthogonalLoop=1;jettySize=auto;html=1;" edge="1" parent="WIyWlLk6GJQsqaUBKTNV-1" source="qtqXAIusuXeXWLF8Rw80-55" target="qtqXAIusuXeXWLF8Rw80-61">
          <mxGeometry relative="1" as="geometry" />
        </mxCell>
        <mxCell id="qtqXAIusuXeXWLF8Rw80-55" value="Verify user from Db" style="whiteSpace=wrap;html=1;rounded=1;" vertex="1" parent="WIyWlLk6GJQsqaUBKTNV-1">
          <mxGeometry x="1230" y="600" width="120" height="60" as="geometry" />
        </mxCell>
        <mxCell id="qtqXAIusuXeXWLF8Rw80-64" value="" style="edgeStyle=orthogonalEdgeStyle;rounded=0;orthogonalLoop=1;jettySize=auto;html=1;" edge="1" parent="WIyWlLk6GJQsqaUBKTNV-1" source="qtqXAIusuXeXWLF8Rw80-61" target="qtqXAIusuXeXWLF8Rw80-63">
          <mxGeometry relative="1" as="geometry" />
        </mxCell>
        <mxCell id="qtqXAIusuXeXWLF8Rw80-65" value="No" style="edgeLabel;html=1;align=center;verticalAlign=middle;resizable=0;points=[];" vertex="1" connectable="0" parent="qtqXAIusuXeXWLF8Rw80-64">
          <mxGeometry x="-0.3844" relative="1" as="geometry">
            <mxPoint as="offset" />
          </mxGeometry>
        </mxCell>
        <mxCell id="qtqXAIusuXeXWLF8Rw80-67" value="" style="edgeStyle=orthogonalEdgeStyle;rounded=0;orthogonalLoop=1;jettySize=auto;html=1;" edge="1" parent="WIyWlLk6GJQsqaUBKTNV-1" source="qtqXAIusuXeXWLF8Rw80-61" target="qtqXAIusuXeXWLF8Rw80-66">
          <mxGeometry relative="1" as="geometry" />
        </mxCell>
        <mxCell id="qtqXAIusuXeXWLF8Rw80-68" value="yes" style="edgeLabel;html=1;align=center;verticalAlign=middle;resizable=0;points=[];" vertex="1" connectable="0" parent="qtqXAIusuXeXWLF8Rw80-67">
          <mxGeometry x="-0.2519" y="-2" relative="1" as="geometry">
            <mxPoint as="offset" />
          </mxGeometry>
        </mxCell>
        <mxCell id="qtqXAIusuXeXWLF8Rw80-61" value="is user valid and premium?" style="rhombus;whiteSpace=wrap;html=1;rounded=1;" vertex="1" parent="WIyWlLk6GJQsqaUBKTNV-1">
          <mxGeometry x="1250" y="725" width="80" height="90" as="geometry" />
        </mxCell>
        <mxCell id="qtqXAIusuXeXWLF8Rw80-63" value="Return Error and ask user to buy a subscription" style="whiteSpace=wrap;html=1;rounded=1;" vertex="1" parent="WIyWlLk6GJQsqaUBKTNV-1">
          <mxGeometry x="1390" y="740" width="120" height="60" as="geometry" />
        </mxCell>
        <mxCell id="qtqXAIusuXeXWLF8Rw80-70" value="" style="edgeStyle=orthogonalEdgeStyle;rounded=0;orthogonalLoop=1;jettySize=auto;html=1;" edge="1" parent="WIyWlLk6GJQsqaUBKTNV-1" source="qtqXAIusuXeXWLF8Rw80-66">
          <mxGeometry relative="1" as="geometry">
            <mxPoint x="1290" y="1050" as="targetPoint" />
          </mxGeometry>
        </mxCell>
        <mxCell id="qtqXAIusuXeXWLF8Rw80-71" value="Continue to Api" style="edgeLabel;html=1;align=center;verticalAlign=middle;resizable=0;points=[];" vertex="1" connectable="0" parent="qtqXAIusuXeXWLF8Rw80-70">
          <mxGeometry x="-0.2313" y="1" relative="1" as="geometry">
            <mxPoint as="offset" />
          </mxGeometry>
        </mxCell>
        <mxCell id="qtqXAIusuXeXWLF8Rw80-66" value="Update user Quota" style="whiteSpace=wrap;html=1;rounded=1;" vertex="1" parent="WIyWlLk6GJQsqaUBKTNV-1">
          <mxGeometry x="1230" y="910" width="120" height="60" as="geometry" />
        </mxCell>
        <mxCell id="qtqXAIusuXeXWLF8Rw80-73" style="edgeStyle=orthogonalEdgeStyle;rounded=0;orthogonalLoop=1;jettySize=auto;html=1;entryX=0.5;entryY=0;entryDx=0;entryDy=0;" edge="1" parent="WIyWlLk6GJQsqaUBKTNV-1" target="qtqXAIusuXeXWLF8Rw80-48">
          <mxGeometry relative="1" as="geometry">
            <mxPoint x="1290" y="10" as="sourcePoint" />
          </mxGeometry>
        </mxCell>
        <mxCell id="qtqXAIusuXeXWLF8Rw80-74" value="Intercept http request" style="edgeLabel;html=1;align=center;verticalAlign=middle;resizable=0;points=[];" vertex="1" connectable="0" parent="qtqXAIusuXeXWLF8Rw80-73">
          <mxGeometry x="-0.3432" y="2" relative="1" as="geometry">
            <mxPoint as="offset" />
          </mxGeometry>
        </mxCell>
      </root>
    </mxGraphModel>
  </diagram>
</mxfile>
